<?xml version="1.0" encoding="utf-8"?>
<!-- Generator: Adobe Illustrator 23.0.3, SVG Export Plug-In . SVG Version: 6.00 Build 0)  -->
<svg version="1.1" id="Layer_1" xmlns="http://www.w3.org/2000/svg" xmlns:xlink="http://www.w3.org/1999/xlink" x="0px" y="0px"
	 viewBox="0 0 50.2 55.7" style="enable-background:new 0 0 50.2 55.7;" xml:space="preserve">
<style type="text/css">
	.st0{fill:none;stroke:#868E96;stroke-width:0.5;stroke-miterlimit:10;}
	.st1{fill-rule:evenodd;clip-rule:evenodd;fill:#868E96;}
</style>
<title>cnn</title>
<desc>Created with Sketch.</desc>
<g>
	<path class="st0" d="M47.4,55.4c1.4,0,2.5-1.1,2.5-2.5c0-1.4-1.1-2.5-2.5-2.5c-1.4,0-2.5,1.1-2.5,2.5C45,54.3,46.1,55.4,47.4,55.4
		 M46.7,54.5v-2.8h1.1 M48.5,54.4L47.8,53 M46.7,53h1.1 M47.8,53c0.3,0,0.6-0.3,0.6-0.6c0-0.4-0.3-0.7-0.6-0.7"/>
	<path class="st1" d="M47.6,40.6c-1.3,2.9-1.9,4.2-3.6,6.7c-2.3,3.6-5.6,8-9.7,8c-3.6,0-4.6-2.4-9.5-2.3c-4.9,0-5.9,2.4-9.6,2.3
		c-4.1,0-7.2-4-9.5-7.6c-6.5-9.9-7.2-21.6-3.2-27.8c2.9-4.4,7.4-7,11.6-7c4.3,0,7,2.4,10.6,2.4c3.5,0,5.6-2.4,10.6-2.4
		c3.8,0,7.8,2.1,10.6,5.6C36.6,23.7,38.1,37,47.6,40.6L47.6,40.6z"/>
	<path class="st1" d="M31.5,9c1.8-2.3,3.2-5.6,2.7-9c-3,0.2-6.4,2.1-8.5,4.6c-1.8,2.2-3.4,5.5-2.8,8.8C26.2,13.4,29.6,11.5,31.5,9
		L31.5,9z"/>
</g>
</svg>
