<?xml version="1.0" encoding="utf-8"?>
<!-- Generator: Adobe Illustrator 23.0.3, SVG Export Plug-In . SVG Version: 6.00 Build 0)  -->
<svg version="1.1" id="Layer_1" xmlns="http://www.w3.org/2000/svg" xmlns:xlink="http://www.w3.org/1999/xlink" x="0px" y="0px"
	 viewBox="0 0 185.3 28.4" style="enable-background:new 0 0 185.3 28.4;" xml:space="preserve">
<style type="text/css">
	.st0{fill:#868E96;}
</style>
<title>time</title>
<desc>Created with Sketch.</desc>
<path class="st0" d="M7,7.7C6.9,7.1,6.9,6.6,7,6.3c0.2-0.8,0.8-1.8,2.4-1.8c1.5,0,2.5,1,2.5,2.4c0,0.5,0,1.6,0,1.6h6.6V6.7
	c0-5.8-5.2-6.7-8.9-6.7C4.9,0,1,1.6,0.3,5.9C0.1,7.1,0.1,8.1,0.4,9.5c1.1,5.4,10.6,7,11.9,10.4c0.3,0.6,0.2,1.5,0,2
	c-0.2,0.9-0.8,1.8-2.6,1.8c-1.7,0-2.6-1-2.6-2.4l0-2.5H0v2c0,5.9,4.7,7.7,9.6,7.7c4.8,0,8.7-1.6,9.4-6.1c0.3-2.3,0.1-3.8,0-4.3
	C17.8,12.4,7.8,10.8,7,7.7L7,7.7z M175.9,12.5v3.9h2.7v3.8c0,0.3,0,0.7-0.1,1c-0.1,0.7-0.8,1.9-2.7,1.9c-1.9,0-2.6-1.2-2.7-1.9
	c-0.1-0.3-0.1-0.7-0.1-1V8.1c0-0.4,0-0.9,0.1-1.3c0.1-0.6,0.7-1.9,2.6-1.9c2,0,2.5,1.3,2.6,1.9c0.1,0.4,0.1,1,0.1,1v1.5h6.7V8.4
	c0,0,0-0.9,0-1.8c-0.5-5-4.6-6.5-9.3-6.5c-4.7,0-8.7,1.6-9.3,6.5c-0.1,0.5-0.1,1.3-0.1,1.8v11.1c0,0.5,0,0.9,0.1,1.7
	c0.4,4.8,4.6,6.5,9.3,6.5c4.7,0,8.9-1.7,9.3-6.5c0.1-0.9,0.1-1.3,0.1-1.7v-7.1H175.9L175.9,12.5z M129.9,0.8h-6.7v19.6
	c0,0.3,0,0.7-0.1,1c-0.1,0.7-0.7,1.9-2.5,1.9c-1.8,0-2.4-1.3-2.5-1.9c-0.1-0.3-0.1-0.7-0.1-1V0.8h-6.7v19c0,0.5,0,1.5,0.1,1.8
	c0.5,4.9,4.4,6.6,9.2,6.6c4.9,0,8.8-1.6,9.2-6.6c0-0.3,0.1-1.3,0.1-1.8V0.8L129.9,0.8z M68.4,0.8L65,21.5L61.7,0.8H50.9l-0.6,26.5
	h6.6l0.2-24.5l4.6,24.5h6.7l4.6-24.5l0.2,24.5h6.6L79.2,0.8H68.4L68.4,0.8z M28.4,0.8l-4.9,26.5h7.2l3.7-24.5l3.6,24.5H45L40.1,0.8
	H28.4L28.4,0.8z M153.3,22.2l-6.2-21.3h-9.8v26.2h6.5l-0.4-22l6.7,22h9.4V0.8h-6.5L153.3,22.2L153.3,22.2z M93.2,7.7
	c-0.1-0.5-0.1-1.1,0-1.4c0.2-0.8,0.8-1.8,2.4-1.8c1.5,0,2.4,1,2.4,2.4c0,0.5,0,1.6,0,1.6h6.5V6.8c0-5.7-5.1-6.6-8.8-6.6
	c-4.7,0-8.5,1.5-9.2,5.8c-0.2,1.2-0.2,2.2,0.1,3.5c1.1,5.4,10.5,6.9,11.8,10.3c0.2,0.6,0.2,1.5,0,1.9c-0.2,0.9-0.8,1.8-2.6,1.8
	c-1.6,0-2.6-0.9-2.6-2.4l0-2.5h-7v2c0,5.9,4.6,7.6,9.5,7.6c4.7,0,8.6-1.6,9.3-6c0.3-2.3,0.1-3.7,0-4.3
	C103.9,12.5,93.9,10.8,93.2,7.7L93.2,7.7z"/>
</svg>
