<?xml version="1.0" encoding="utf-8"?>
<!-- Generator: Adobe Illustrator 23.0.3, SVG Export Plug-In . SVG Version: 6.00 Build 0)  -->
<svg version="1.1" id="Layer_1" xmlns="http://www.w3.org/2000/svg" xmlns:xlink="http://www.w3.org/1999/xlink" x="0px" y="0px"
	 viewBox="0 0 166.6 29.3" style="enable-background:new 0 0 166.6 29.3;" xml:space="preserve">
<style type="text/css">
	.st0{fill:#868E96;}
</style>
<title>airbnb</title>
<desc>Created with Sketch.</desc>
<path class="st0" d="M59.2,0c-5.8,0-11.9,2-15.3,5.1c-2.8,2.5-4.2,6-4.2,9.5c0,3.5,1.3,7,4.2,9.5c3.7,3.4,9.3,5.2,15.3,5.2
	c6,0,11.7-1.8,15.4-5.2c2.7-2.5,4.1-6.1,4.1-9.5c0-3.5-1.3-7-4.1-9.5C70.7,1.6,65.6,0,59.2,0 M67.5,22.2c-2.1,2.1-5,3.2-8.2,3.2
	c-3.2,0-6.2-1.1-8.2-3.2c-2-2-3-4.7-3-7.6c0-2.9,1-5.7,3-7.7c2-2,5.1-3.1,8.2-3.1c3.2,0,6.2,1.1,8.2,3.1c2,2,3,4.7,3,7.7
	C70.5,17.7,69.5,20.2,67.5,22.2"/>
<path class="st0" d="M28.9,12.9c-0.8-0.4-2.2-0.9-3.2-1.1c-2.1-0.5-6.8-1.1-9.1-1.4c-2.4-0.3-6.5-0.6-8.1-1.1C8,9.2,6.9,8.7,6.9,7.5
	c0-0.8,0.5-1.6,1.4-2.1c1.5-0.9,4.4-1.5,7.5-1.5c3.6,0,6.7,0.8,8.7,1.7c0.7,0.3,1.4,0.7,2.1,1.2c0.7,0.6,1.7,1.7,2,3.4h3.3V1.3h-3.7
	v1c0,0.3-0.3,0.8-1,0.4C25.5,1.9,20.9,0,15.2,0C12,0,8.3,0.6,5.2,2C2.4,3.3,0,5.4,0,8.8c0,3.1,2,4.9,1.9,4.9
	c0.8,0.8,2.2,2.1,5.7,2.8c1.6,0.3,4.9,0.9,8.3,1.2c3.3,0.4,6.6,0.7,7.9,1c1.1,0.3,2.8,0.6,2.8,2.6c0,2-1.9,2.6-2.2,2.7
	c-0.3,0.1-2.6,1.2-6.6,1.2c-3,0-6.6-0.9-7.9-1.4c-1.5-0.5-3.1-1.2-4.6-3c-0.4-0.5-0.9-1.7-0.9-2.9H0.8v10.2h4.1v-1.4
	c0-0.2,0.2-0.8,0.9-0.5c0.9,0.4,3.3,1.4,5.9,1.9c2.1,0.4,3.5,0.8,6.2,0.8c4.3,0,6.7-0.7,8.3-1.2c1.5-0.4,3.4-1.2,4.9-2.4
	c0.8-0.7,2.6-2.3,2.6-5.4c0-2.9-1.6-4.7-2.1-5.3C30.8,14,29.9,13.4,28.9,12.9"/>
<path class="st0" d="M108,4.9h3.4c1.5,0,1.8,0.6,1.8,2l0.2,10.9L95.5,1.6H82.7v3.3h2.8c2.1,0,2.2,1.2,2.2,2.1v15.2
	c0,0.9,0.1,2.2-1.3,2.2H83v3.3h15v-3.3h-3.7c-1.5,0-1.5-0.7-1.5-2.1v-13l20.6,18.4h5.2l-0.3-20.8c0-1.5,0.1-2,1.7-2h3.3V1.6H108V4.9
	z"/>
<path class="st0" d="M151.2,24.3l-0.7-0.6l-0.1-0.7v-5.1l0.1-0.5c0.2-0.3,9.5-10.8,9.9-11.3c0.9-1,1.4-1.2,2.6-1.2h3.3V1.6h-14.7
	v3.3h2.2c0.6,0,0.8,0.7,0.5,1l-6.2,7.3l-0.2,0l-6.1-7.3c-0.4-0.5-0.1-1,0.4-1h2.2V1.6h-17.9v3.3h3.2c1.4,0,2.3,0.9,2.8,1.4
	c0.4,0.5,9.5,10.8,9.8,11.1l0.2,0.5V23l-0.1,0.7l-0.7,0.6l-0.9,0.1h-3.2v3.3h17.8v-3.3h-3.4L151.2,24.3z"/>
<path class="st0" d="M164.8,26.2l0-0.8c0-0.6-0.3-0.7-0.5-0.8c0.3-0.2,0.6-0.4,0.6-1c0-0.9-0.7-1.2-1.4-1.2h-2v4.3h0.6v-1.8h1.4
	c0.7,0,0.8,0.4,0.8,0.8l0.1,1.1h0.7v-0.1L164.8,26.2z M163.4,24.4H162v-1.5h1.5c0.3,0,0.8,0.1,0.8,0.7
	C164.3,24.2,163.8,24.4,163.4,24.4"/>
<path class="st0" d="M163.1,21.1c-1.9,0-3.5,1.6-3.5,3.5c0,1.9,1.6,3.5,3.5,3.5c1.9,0,3.5-1.6,3.5-3.5
	C166.6,22.6,165,21.1,163.1,21.1 M163.1,27.7c-1.7,0-3.1-1.4-3.1-3.1c0-1.7,1.4-3.1,3.1-3.1c1.7,0,3.1,1.4,3.1,3.1
	C166.2,26.3,164.8,27.7,163.1,27.7"/>
</svg>
